<?xml version="1.0" ?><!DOCTYPE svg  PUBLIC '-//W3C//DTD SVG 1.1//EN'  'http://www.w3.org/Graphics/SVG/1.1/DTD/svg11.dtd'><svg enable-background="new 0 0 1024 1024" height="1024px" id="Layer_1" version="1.1" viewBox="0 0 1024 1024" width="1024px" xml:space="preserve" xmlns="http://www.w3.org/2000/svg" xmlns:xlink="http://www.w3.org/1999/xlink"><g id="Background"><path d="M983.766,312.727c-25.785-60.972-62.694-115.728-109.705-162.744   C827.05,102.966,772.299,66.049,711.329,40.257C648.194,13.548,581.14,0.004,512,0c-69.104,0-136.155,13.54-199.289,40.243   c-60.969,25.787-115.721,62.699-162.735,109.71c-47.014,47.011-83.929,101.761-109.72,162.728   C13.548,375.814,0.004,442.865,0,511.97c-0.004,69.109,13.533,136.165,40.234,199.304   c25.785,60.973,62.696,115.728,109.707,162.743c47.011,47.018,101.762,83.935,162.732,109.727   c63.136,26.708,130.19,40.253,199.323,40.257h0.009c69.104,0,136.153-13.54,199.288-40.243   c60.969-25.787,115.72-62.699,162.733-109.709c47.013-47.01,83.929-101.76,109.72-162.728   c26.708-63.134,40.251-130.186,40.255-199.29C1024.004,442.921,1010.467,375.866,983.766,312.727z M512.004,976.328h-0.03   c-124.026-0.007-240.627-48.313-328.323-136.019C95.957,752.604,47.665,635.999,47.672,511.973   c0.015-256.016,208.312-464.3,464.356-464.3c124.026,0.007,240.626,48.312,328.32,136.017   c87.695,87.706,135.986,204.311,135.979,328.337C976.313,768.043,768.018,976.328,512.004,976.328z" fill="#262626"/></g><g id="Soundcloud"><path d="M865.563,561.094c-16.953-83.23-99.413-71.672-117.909-63.194c0,0-4.625-105.965-114.059-134.479   c0,0-57.413-16.184-105.58,12.331v289.383c7.289,0,14.577-0.001,21.866-0.004c17.822-0.003,35.646-0.006,53.466,0.002   c22.664,0.01,45.327-0.005,67.991,0.008c21.918,0.013,43.835,0.028,65.752,0.004c16.852-0.018,33.703-0.065,50.557-0.065   c13.423,0,21.609-4.155,31.513-9.331C843.573,642.983,876.597,615.256,865.563,561.094z" fill="#262626"/><polygon fill="#262626" points="481.775,665.126 504.511,665.126 504.511,389.622 481.775,410.429  "/><polygon fill="#262626" points="435.536,665.126 457.693,665.126 457.693,429.504 435.536,416.402  "/><polygon fill="#262626" points="389.296,665.126 411.26,665.126 411.26,411.201 389.296,407.732  "/><polygon fill="#262626" points="342.094,665.126 364.25,665.126 364.25,411.201 342.094,420.063  "/><polygon fill="#262626" points="295.662,665.126 317.818,665.126 317.818,435.476 295.662,458.596  "/><polygon fill="#262626" points="248.362,665.126 270.904,665.126 270.904,496.165 248.362,491.252  "/><polygon fill="#262626" points="201.834,655.402 224.376,665.126 224.376,493.275 201.834,502.234  "/><path d="M179.581,636.907V520.152C179.581,520.152,127.08,573.231,179.581,636.907z" fill="#262626"/></g></svg>